<?xml version="1.0" encoding="UTF-8"?>
<svg xmlns="http://www.w3.org/2000/svg" xmlns:xlink="http://www.w3.org/1999/xlink" width="854" height="480" viewBox="0 0 854 480">
<defs>
<g>
<g id="glyph-0-0">
<path d="M 2.351562 -5.511719 L 2.351562 -5.359375 C 2.144531 -5.355469 2 -5.34375 1.925781 -5.316406 C 1.792969 -5.273438 1.726562 -5.1875 1.726562 -5.054688 C 1.726562 -4.984375 1.75 -4.890625 1.796875 -4.769531 C 1.84375 -4.648438 1.933594 -4.441406 2.0625 -4.15625 L 3.363281 -1.253906 L 4.550781 -4.394531 C 4.601562 -4.53125 4.640625 -4.648438 4.667969 -4.746094 C 4.695312 -4.839844 4.707031 -4.917969 4.707031 -4.976562 C 4.707031 -5.136719 4.636719 -5.246094 4.5 -5.300781 C 4.417969 -5.332031 4.285156 -5.351562 4.097656 -5.359375 L 4.097656 -5.511719 L 5.800781 -5.511719 L 5.800781 -5.371094 C 5.625 -5.347656 5.496094 -5.300781 5.410156 -5.226562 C 5.285156 -5.121094 5.15625 -4.910156 5.03125 -4.589844 L 3.191406 0.0976562 L 3.0625 0.0976562 L 1.007812 -4.484375 C 0.835938 -4.871094 0.695312 -5.113281 0.59375 -5.207031 C 0.488281 -5.300781 0.335938 -5.355469 0.132812 -5.371094 L 0.132812 -5.511719 Z "/>
</g>
<g id="glyph-0-1">
<path d="M 2.386719 -2.253906 C 2.074219 -2.152344 1.820312 -2.039062 1.617188 -1.914062 C 1.226562 -1.671875 1.03125 -1.398438 1.03125 -1.089844 C 1.03125 -0.84375 1.109375 -0.660156 1.273438 -0.546875 C 1.378906 -0.46875 1.496094 -0.429688 1.628906 -0.429688 C 1.808594 -0.429688 1.976562 -0.480469 2.140625 -0.582031 C 2.304688 -0.683594 2.386719 -0.808594 2.386719 -0.964844 Z M 0.304688 -0.808594 C 0.304688 -1.203125 0.5 -1.53125 0.894531 -1.792969 C 1.144531 -1.957031 1.640625 -2.179688 2.386719 -2.457031 L 2.386719 -2.804688 C 2.386719 -3.082031 2.359375 -3.273438 2.308594 -3.382812 C 2.214844 -3.5625 2.023438 -3.652344 1.734375 -3.652344 C 1.59375 -3.652344 1.464844 -3.617188 1.339844 -3.546875 C 1.214844 -3.472656 1.152344 -3.375 1.152344 -3.246094 C 1.152344 -3.214844 1.160156 -3.160156 1.171875 -3.082031 C 1.183594 -3.003906 1.191406 -2.957031 1.191406 -2.933594 C 1.191406 -2.78125 1.140625 -2.675781 1.042969 -2.617188 C 0.984375 -2.582031 0.917969 -2.5625 0.839844 -2.5625 C 0.714844 -2.5625 0.621094 -2.601562 0.558594 -2.683594 C 0.492188 -2.761719 0.460938 -2.851562 0.460938 -2.949219 C 0.460938 -3.140625 0.578125 -3.339844 0.8125 -3.546875 C 1.046875 -3.753906 1.390625 -3.855469 1.84375 -3.855469 C 2.371094 -3.855469 2.726562 -3.6875 2.914062 -3.34375 C 3.015625 -3.15625 3.0625 -2.886719 3.0625 -2.527344 L 3.0625 -0.894531 C 3.0625 -0.738281 3.074219 -0.628906 3.097656 -0.570312 C 3.132812 -0.464844 3.203125 -0.410156 3.316406 -0.410156 C 3.378906 -0.410156 3.429688 -0.421875 3.472656 -0.4375 C 3.511719 -0.457031 3.582031 -0.503906 3.683594 -0.578125 L 3.683594 -0.367188 C 3.597656 -0.261719 3.5 -0.171875 3.402344 -0.105469 C 3.25 -0.00390625 3.09375 0.046875 2.9375 0.046875 C 2.753906 0.046875 2.621094 -0.0117188 2.535156 -0.128906 C 2.453125 -0.25 2.410156 -0.390625 2.402344 -0.558594 C 2.195312 -0.378906 2.019531 -0.246094 1.871094 -0.160156 C 1.625 -0.0117188 1.390625 0.0625 1.167969 0.0625 C 0.933594 0.0625 0.730469 -0.0195312 0.5625 -0.183594 C 0.390625 -0.347656 0.304688 -0.558594 0.304688 -0.808594 Z "/>
</g>
<g id="glyph-0-2">
<path d="M 0.171875 -0.113281 C 0.421875 -0.136719 0.59375 -0.1875 0.683594 -0.265625 C 0.773438 -0.34375 0.816406 -0.496094 0.816406 -0.71875 L 0.816406 -4.695312 C 0.816406 -4.875 0.804688 -4.996094 0.773438 -5.066406 C 0.71875 -5.179688 0.609375 -5.238281 0.445312 -5.238281 C 0.40625 -5.238281 0.363281 -5.234375 0.320312 -5.222656 C 0.273438 -5.214844 0.21875 -5.203125 0.152344 -5.1875 L 0.152344 -5.320312 C 0.515625 -5.417969 0.957031 -5.550781 1.472656 -5.710938 C 1.492188 -5.710938 1.503906 -5.703125 1.507812 -5.6875 C 1.511719 -5.671875 1.511719 -5.636719 1.511719 -5.582031 L 1.511719 -0.703125 C 1.511719 -0.46875 1.554688 -0.316406 1.636719 -0.246094 C 1.71875 -0.175781 1.886719 -0.132812 2.140625 -0.113281 L 2.140625 0 L 0.171875 0 Z "/>
</g>
<g id="glyph-0-3">
<path d="M 1.289062 -3.769531 L 1.289062 -1.164062 C 1.289062 -0.980469 1.316406 -0.832031 1.367188 -0.71875 C 1.46875 -0.511719 1.652344 -0.410156 1.921875 -0.410156 C 2.105469 -0.410156 2.285156 -0.472656 2.460938 -0.59375 C 2.5625 -0.660156 2.664062 -0.753906 2.765625 -0.875 L 2.765625 -3.105469 C 2.765625 -3.3125 2.726562 -3.449219 2.644531 -3.515625 C 2.5625 -3.582031 2.402344 -3.621094 2.15625 -3.632812 L 2.15625 -3.769531 L 3.472656 -3.769531 L 3.472656 -0.902344 C 3.472656 -0.71875 3.503906 -0.59375 3.570312 -0.523438 C 3.636719 -0.453125 3.777344 -0.421875 3.992188 -0.429688 L 3.992188 -0.316406 C 3.84375 -0.277344 3.734375 -0.246094 3.660156 -0.226562 C 3.589844 -0.207031 3.472656 -0.167969 3.308594 -0.113281 C 3.238281 -0.0898438 3.082031 -0.03125 2.84375 0.0625 C 2.832031 0.0625 2.824219 0.0546875 2.820312 0.0429688 C 2.816406 0.03125 2.816406 0.015625 2.816406 0 L 2.816406 -0.65625 C 2.632812 -0.4375 2.464844 -0.273438 2.3125 -0.167969 C 2.082031 -0.00390625 1.835938 0.078125 1.578125 0.078125 C 1.34375 0.078125 1.121094 -0.0078125 0.910156 -0.175781 C 0.699219 -0.339844 0.59375 -0.617188 0.59375 -1.007812 L 0.59375 -3.121094 C 0.59375 -3.339844 0.546875 -3.484375 0.457031 -3.554688 C 0.394531 -3.601562 0.269531 -3.636719 0.0742188 -3.652344 L 0.0742188 -3.769531 Z "/>
</g>
<g id="glyph-0-4">
<path d="M 1.910156 -3.816406 C 2.292969 -3.816406 2.625 -3.683594 2.914062 -3.417969 C 3.199219 -3.15625 3.34375 -2.78125 3.34375 -2.292969 L 0.761719 -2.292969 C 0.789062 -1.664062 0.929688 -1.207031 1.1875 -0.917969 C 1.445312 -0.632812 1.75 -0.488281 2.105469 -0.488281 C 2.390625 -0.488281 2.628906 -0.5625 2.824219 -0.710938 C 3.019531 -0.859375 3.199219 -1.074219 3.363281 -1.347656 L 3.507812 -1.296875 C 3.394531 -0.953125 3.1875 -0.632812 2.882812 -0.339844 C 2.578125 -0.046875 2.203125 0.0976562 1.761719 0.0976562 C 1.25 0.0976562 0.859375 -0.09375 0.578125 -0.480469 C 0.300781 -0.867188 0.164062 -1.308594 0.164062 -1.8125 C 0.164062 -2.355469 0.324219 -2.828125 0.648438 -3.222656 C 0.96875 -3.617188 1.390625 -3.816406 1.910156 -3.816406 Z M 1.671875 -3.519531 C 1.363281 -3.519531 1.128906 -3.382812 0.964844 -3.109375 C 0.878906 -2.960938 0.816406 -2.777344 0.777344 -2.554688 L 2.496094 -2.554688 C 2.464844 -2.828125 2.414062 -3.027344 2.339844 -3.160156 C 2.207031 -3.398438 1.984375 -3.519531 1.671875 -3.519531 Z "/>
</g>
</g>
</defs>
<g fill="rgb(100%, 100%, 100%)" fill-opacity="1">
<use xlink:href="#glyph-0-0" x="30" y="26.25"/>
<use xlink:href="#glyph-0-1" x="36" y="26.25"/>
<use xlink:href="#glyph-0-2" x="39" y="26.25"/>
<use xlink:href="#glyph-0-3" x="41" y="26.25"/>
<use xlink:href="#glyph-0-4" x="45" y="26.25"/>
</g>
</svg>
